<svg width="313" height="106" viewBox="0 0 313 106" fill="none" xmlns="http://www.w3.org/2000/svg">
<path d="M62.64 70.168C62.64 75.064 62.112 79.624 61.056 83.848C60 88.072 58.128 91.768 55.44 94.936C52.848 98.104 49.296 100.6 44.784 102.424C40.368 104.248 34.752 105.16 27.936 105.16C21.6 105.16 16.08 104.296 11.376 102.568C6.768 100.744 3.216 98.824 0.72 96.808L7.2 82.552C9.6 84.184 12.528 85.768 15.984 87.304C19.536 88.744 23.136 89.464 26.784 89.464C32.928 89.464 37.392 87.928 40.176 84.856C42.96 81.784 44.352 76.504 44.352 69.016V3.208H62.64V70.168ZM100.612 53.032C100.612 58.504 101.284 63.496 102.628 68.008C103.972 72.424 105.892 76.216 108.388 79.384C110.98 82.456 114.1 84.856 117.748 86.584C121.396 88.312 125.524 89.176 130.132 89.176C134.644 89.176 138.724 88.312 142.372 86.584C146.02 84.856 149.092 82.456 151.588 79.384C154.18 76.216 156.148 72.424 157.492 68.008C158.836 63.496 159.508 58.504 159.508 53.032C159.508 47.56 158.836 42.616 157.492 38.2C156.148 33.688 154.18 29.896 151.588 26.824C149.092 23.656 146.02 21.208 142.372 19.48C138.724 17.752 134.644 16.888 130.132 16.888C125.524 16.888 121.396 17.752 117.748 19.48C114.1 21.208 110.98 23.656 108.388 26.824C105.892 29.992 103.972 33.784 102.628 38.2C101.284 42.616 100.612 47.56 100.612 53.032ZM178.516 53.032C178.516 61.576 177.22 69.112 174.628 75.64C172.132 82.168 168.676 87.64 164.26 92.056C159.94 96.376 154.852 99.64 148.996 101.848C143.14 104.056 136.9 105.16 130.276 105.16C123.652 105.16 117.364 104.056 111.412 101.848C105.556 99.64 100.42 96.376 96.0041 92.056C91.6841 87.64 88.2281 82.168 85.6361 75.64C83.0441 69.112 81.7481 61.576 81.7481 53.032C81.7481 44.488 83.0441 37 85.6361 30.568C88.2281 24.04 91.7321 18.568 96.1481 14.152C100.66 9.73599 105.844 6.42399 111.7 4.21599C117.556 2.00799 123.748 0.903993 130.276 0.903993C136.804 0.903993 142.996 2.00799 148.852 4.21599C154.708 6.42399 159.796 9.73599 164.116 14.152C168.532 18.568 172.036 24.04 174.628 30.568C177.22 37 178.516 44.488 178.516 53.032ZM224.12 103C216.92 87.448 209.96 71.176 203.24 54.184C196.616 37.192 190.424 20.2 184.664 3.208H204.68C206.984 9.928 209.336 16.792 211.736 23.8C214.136 30.808 216.536 37.72 218.936 44.536C221.336 51.256 223.736 57.784 226.136 64.12C228.536 70.456 230.888 76.264 233.192 81.544C235.4 76.264 237.704 70.504 240.104 64.264C242.504 57.928 244.904 51.352 247.304 44.536C249.8 37.72 252.248 30.808 254.648 23.8C257.048 16.792 259.352 9.928 261.56 3.208H281C275.144 20.2 268.904 37.192 262.28 54.184C255.656 71.176 248.744 87.448 241.544 103H224.12ZM293.905 3.208H312.049V103H293.905V3.208Z" fill="black"/>
</svg>
