<?xml version="1.0" encoding="UTF-8" standalone="no"?>
<!-- Created with Inkscape (http://www.inkscape.org/) -->

<svg
   xmlns:dc="http://purl.org/dc/elements/1.1/"
   xmlns:cc="http://creativecommons.org/ns#"
   xmlns:rdf="http://www.w3.org/1999/02/22-rdf-syntax-ns#"
   xmlns:svg="http://www.w3.org/2000/svg"
   xmlns="http://www.w3.org/2000/svg"
   xmlns:sodipodi="http://sodipodi.sourceforge.net/DTD/sodipodi-0.dtd"
   xmlns:inkscape="http://www.inkscape.org/namespaces/inkscape"
   width="480"
   height="480"
   viewBox="0 0 127 127"
   version="1.1"
   id="svg8"
   inkscape:version="0.92.4 (5da689c313, 2019-01-14)"
   sodipodi:docname="jovi-logo.svg">
  <defs
     id="defs2" />
  <sodipodi:namedview
     id="base"
     pagecolor="#ffffff"
     bordercolor="#666666"
     borderopacity="1.0"
     inkscape:pageopacity="0.0"
     inkscape:pageshadow="2"
     inkscape:zoom="1.979899"
     inkscape:cx="237.1166"
     inkscape:cy="228.70586"
     inkscape:document-units="mm"
     inkscape:current-layer="layer2"
     showgrid="false"
     units="px"
     width="480px"
     inkscape:window-width="2256"
     inkscape:window-height="1410"
     inkscape:window-x="-11"
     inkscape:window-y="-11"
     inkscape:window-maximized="1" />
  <metadata
     id="metadata5">
    <rdf:RDF>
      <cc:Work
         rdf:about="">
        <dc:format>image/svg+xml</dc:format>
        <dc:type
           rdf:resource="http://purl.org/dc/dcmitype/StillImage" />
        <dc:title></dc:title>
      </cc:Work>
    </rdf:RDF>
  </metadata>
  <g
     inkscape:groupmode="layer"
     id="layer2"
     inkscape:label="Background-Border">
    <path
       id="rect3732"
       transform="scale(0.26458333)"
       style="stroke-width:0.99999994"
       d="M 0,0.17773438 V 480 H 481.33789 V 0.17773438 Z M 22.787109,21.486328 c 0.197741,-0.01267 0.405976,-0.01101 0.623047,0.0059 0.496164,0.03857 1.04144,0.158321 1.626953,0.376953 2.475272,0.924269 5.388979,2.174091 8.042969,2.505859 4.174334,0.521823 11.679948,0.236892 15.542969,0.109375 5.658962,-0.186799 7.990483,-0.351389 13.064453,-0.658203 1.452582,-0.03288 2.904492,-0.09199 4.357422,-0.09961 1.723721,-0.009 12.832962,0.136883 13.392578,0.142579 2.803771,0.02854 5.608267,0.05015 8.412109,0.07031 1.578078,0.01134 3.158985,-0.06928 4.734375,0.02344 1.460637,0.08596 2.906181,0.341198 4.359375,0.511718 1.681338,0.247525 3.361631,0.494665 5.042971,0.742188 2.08592,0.332288 4.16923,0.682962 6.25781,0.998047 4.46156,0.673073 5.04136,0.59041 9.69727,1.517578 3.40828,0.678718 6.7843,1.508675 10.18164,2.240234 3.67939,0.432376 7.15126,1.712459 10.68359,2.748047 1.54701,0.453544 4.20001,1.149507 5.86524,1.757813 0.55443,0.202535 1.09206,0.451096 1.63476,0.683593 0.002,-0.02845 0.0187,-0.0521 0.0566,-0.06836 1.84424,-0.790765 3.75151,-1.425423 5.63867,-2.107422 8.79165,-3.177194 6.58867,-2.373226 15.83203,-5.136719 7.27066,-1.589306 8.28658,-2.237055 15.92774,-2.11914 4.24853,0.06556 6.44932,0.796934 10.37305,1.578125 4.13287,0.822831 5.08393,0.918498 9.53906,1.615234 4.42801,0.583329 8.86207,0.561884 13.30469,0.279297 1.0803,0.304581 2.06569,-0.225883 3.10156,-0.308594 2.42664,-0.193757 4.8573,-0.355136 7.28515,-0.533203 3.94913,0.171398 7.89087,-0.839596 11.84375,-0.621094 3.69487,0.20424 -0.92756,3.728388 -1.66406,4.902344 1.27703,-0.125873 1.976,-0.14162 1.18555,0.125 -1.23134,0.415329 -1.44418,0.287255 -1.18555,-0.125 -4.39141,0.432851 -16.85332,2.406869 -9.8164,0.75586 -2.30639,0.164824 -4.61305,0.310074 -6.91797,0.49414 -1.19689,0.09558 -2.35514,0.552831 -3.58399,0.355469 -4.78633,0.295695 -9.56572,0.301146 -14.33398,-0.333985 -4.3908,-0.688395 -5.70795,-0.841633 -9.81641,-1.667968 -3.35534,-0.67486 -5.46806,-1.385078 -9.06055,-1.470703 -7.06574,-0.168409 -7.90711,0.434927 -14.73632,1.914062 -9.96743,2.972353 -5.9893,1.644097 -15.53516,5.039063 -1.64129,0.58372 -3.28619,1.156483 -4.91602,1.771484 -0.74941,0.282784 -1.43605,0.758857 -2.2207,0.919922 -0.69811,0.143282 -1.4663,-0.26393 -2.08008,-0.527344 -2.33707,-1.010555 -4.7232,-1.616095 -7.17187,-2.333984 -3.41225,-1.000385 -6.7358,-2.248766 -10.29492,-2.648438 -3.32782,-0.716724 -6.63452,-1.534176 -9.97266,-2.201172 -4.49306,-0.897758 -5.25648,-0.845179 -9.63672,-1.505859 -2.06916,-0.312096 -4.13468,-0.658971 -6.20117,-0.988281 L 96.335898,29.48832 c -1.258961,-0.158301 -2.510632,-0.400547 -3.777344,-0.474609 -1.581211,-0.09245 -3.168082,-0.01202 -4.751953,-0.02344 -2.809924,-0.02022 -5.619836,-0.04171 -8.429688,-0.07031 -0.19079,-0.0019 -11.693714,-0.149434 -13.21875,-0.142578 -1.388787,0.0062 -2.777539,0.0596 -4.166015,0.08984 -5.058203,0.3052 -7.686822,0.489646 -13.261719,0.667968 -5.099675,0.163121 -11.736686,0.429661 -16.908203,-0.269531 -1.863841,-0.251992 -3.80817,-0.896877 -5.689454,-1.59375 0.600422,1.802584 1.238802,3.570083 2.191407,5.333984 0.50706,0.938905 1.159804,1.793441 1.808593,2.640625 1.991669,2.600694 2.228414,2.395265 4.695313,4.88086 1.421084,1.431851 2.789037,2.915347 4.183594,4.373047 14.426642,18.895522 -1.160153,-1.747873 13.085937,17.839843 2.351388,3.233054 4.749002,6.433695 7.1875,9.601563 1.448999,1.882405 2.840538,3.822677 4.47461,5.546875 3.393343,3.580501 10.016845,9.376806 13.927734,12.865234 0.756272,0.758313 9.105225,9.080258 10.824219,10.949209 0.495655,0.53891 1.672432,1.07141 1.353515,1.73048 -0.0886,0.18309 -0.230183,0.35194 -0.402343,0.51367 2.397687,2.75543 4.351111,5.87757 6.236328,9.05664 3.0044,1.42468 6.037161,2.82206 8.654301,4.79688 8.88063,6.70106 16.75654,14.63944 25.13476,21.95899 -1.6744,1.26346 -2.89971,2.37273 -3.81445,3.37499 0.16398,0.14331 0.3282,0.28637 0.49219,0.42968 3.4523,2.88368 6.91184,5.75666 10.36718,8.63672 0.29484,-0.12578 0.60003,-0.21651 0.92578,-0.23828 0.60188,-0.0402 1.92854,0.40644 3.42383,1.02344 6.21203,1.04392 11.61544,2.39288 11.04883,5.83398 -0.31669,1.92329 -1.30087,2.76747 -2.57812,2.97657 -0.14018,0.36855 -0.3895,0.65005 -0.79688,0.78124 -0.98404,0.31699 -1.75609,-0.32645 -2.47461,-1.23632 -2.70462,-0.92323 -5.22462,-2.66817 -5.97461,-3.14063 0.61214,0.9118 1.05563,1.96452 1.67578,2.875 2.31506,3.39884 4.96785,6.55463 7.30664,9.9336 0.94158,1.36033 1.81133,2.76771 2.7168,4.15234 3.47091,5.7171 6.35303,11.75927 9.51172,17.64648 2.5136,4.68489 5.19894,9.26525 8.06055,13.74415 12.62007,-15.51965 25.02624,-31.21251 37.50781,-46.84375 0.42334,-0.48532 1.47884,-1.82834 2.80469,-3.4629 1.93469,-3.02779 3.80442,-5.9102 5.50976,-8.43164 2.24836,-3.32431 3.77039,-7.90812 7.48242,-9.43359 1.31724,-0.54132 2.77453,0.87194 3.56446,2.48048 0.003,5.5e-4 0.007,-5.9e-4 0.01,0 0.2169,-0.0647 0.43046,-0.11532 0.63672,-0.15039 1.38353,-0.23533 1.53149,2.55444 1.44336,3.95508 -0.0697,1.10692 -1.20563,1.86418 -1.86523,2.75586 -2.45993,3.32535 -2.47346,3.86761 -4.07032,3.79686 -0.0873,0.33387 -0.10069,0.69435 -0.17382,1.03321 -0.2293,-0.44137 -0.40781,-0.74398 -0.60547,-1.09571 -0.14237,-0.0134 -0.29186,-0.0214 -0.45508,-0.0371 -2.55777,3.21582 -5.36541,6.2278 -8.125,9.2793 -2.90813,4.58027 -5.95722,9.49346 -9.07031,14.60937 5.40373,-7.61466 11.20517,-14.50758 14.78711,-11.50587 5.75239,4.82062 0.22093,14.39766 -1.66211,18.61134 -0.0181,0.0405 -0.0233,0.0522 -0.041,0.0918 2.72869,-1.87302 5.56676,-3.60849 8.29883,-5.47069 4.12565,-2.81213 7.86861,-5.17834 12.5,-7.04297 1.7547,-0.70646 3.94921,-1.34174 6.15625,-1.91797 3.68988,-3.02577 6.73702,-5.47958 8.26172,-6.59571 1.0388,-0.76043 2.09254,-1.50163 3.14453,-2.24414 2.1857,-3.6554 7.07851,-11.85658 18.65234,-31.54687 3.17171,-4.65018 18.68351,-29.317084 26.64453,-36.156256 0.71857,-0.617306 1.99107,-1.294748 3.0293,-1.394531 0.62294,-0.05987 1.16146,0.08848 1.44336,0.582031 3.22108,5.63952 -1.64616,13.147036 -3.36133,17.830086 -1.69661,4.63238 -3.16213,9.34484 -4.74414,14.01757 -2.60921,6.99755 -4.38595,12.0434 -6.3418,16.99415 0.0797,-0.0216 0.16807,-0.0503 0.2461,-0.0703 1.01668,-0.26056 2.09392,0.15544 3.14062,0.23243 0.69866,0.83365 1.39705,1.66632 2.09571,2.5 -0.009,-0.047 -0.029,-0.0914 -0.0293,-0.14063 -10e-4,-0.22545 0.41327,-0.18852 0.63476,-0.23047 0.34345,-0.065 0.74549,-0.26824 1.04493,-0.0879 1.04865,0.63157 1.85706,1.59629 2.78515,2.39453 0.003,2.90248 0.27799,8.87856 -0.95117,11.21094 -3.02199,5.73442 -6.79215,11.05434 -10.51953,16.35742 -2.45343,3.49059 -4.92214,6.96899 -7.4043,10.43945 0.22543,1.22305 0.23426,2.87282 0.27735,3.91211 -0.79627,1.82923 -1.5543,3.6762 -2.34961,5.50586 -0.006,0.11144 -0.007,0.18893 -0.0137,0.30274 -0.37788,6.43339 -2.82537,12.57649 -4.08594,18.89648 -1.44538,7.24652 -2.73422,14.5243 -4.03125,21.79883 -4.40304,24.69501 -4.3948,25.23197 -7.96485,47.67773 -1.26603,5.10842 -1.57838,10.28736 -1.98046,15.47852 0.17257,-0.0716 0.34106,-0.15124 0.48242,-0.26953 1.24736,-1.04387 2.34515,-2.25347 3.51758,-3.38086 2.48385,-2.92915 4.94813,-5.87434 7.45117,-8.78711 4.51123,-5.2497 9.17147,-10.37308 13.58984,-15.70117 14.77826,-17.821 25.43471,-30.88688 37.74805,-50.62891 7.30355,-11.7098 15.34801,-26.18424 22.98828,-40.21289 2.55185,-5.70602 5.73589,-11.13437 8.61719,-16.6875 1.65294,-3.18572 2.72225,-6.85038 4.85547,-9.68945 0.64339,-1.96526 1.43255,-3.78036 3.16992,-4.60938 0.83109,-0.39657 1.4842,0.30815 1.92969,1.36719 1.26538,-0.21278 2.36757,-0.0184 2.54296,0.97852 0.48832,2.77544 -1.926,5.09995 -3.72265,7.51953 -0.41383,0.71186 -0.86662,1.4105 -1.33203,2.10351 -3.61637,6.67184 -7.54367,13.93377 -11.55664,21.30274 -0.47688,1.067 -0.94004,2.14072 -1.36524,3.23047 -12.80021,32.80555 -20.03617,57.21291 -29.27344,87.9375 1.2294,-0.34413 2.78579,0.17713 4.11719,0.10351 0.78687,1.95844 1.05609,4.31702 3.14649,5.37305 0.67621,0.34159 4.27136,-2.09647 4.92187,-2.37695 1.14133,-0.49212 2.34402,-0.82923 3.51563,-1.24415 0.60202,-0.1089 3.62169,-0.89318 4.58984,-0.37695 0.86596,0.46175 1.18967,2.09331 2.16602,1.99414 2.43116,-0.24691 4.38373,-2.22852 6.73437,-2.89648 2.91951,-0.82962 5.98869,-0.99887 8.96484,-1.59571 0.0381,-2.05946 0.89098,-4.30565 3.05079,-3.1289 5.84467,3.18443 5.10837,0.84943 3.0332,6.69531 -4.78433,1.32078 -9.32105,2.73615 -14.38867,3.03516 -4.04513,0.23867 -8.11199,-0.76474 -12.14844,-0.40821 -0.77276,0.0683 1.29107,0.86095 1.92187,1.3125 0.0928,0.0664 -0.20279,-0.10304 -0.30468,-0.15429 l -1.97461,0.29883 c -0.9239,0.30667 -1.87697,0.53589 -2.77149,0.91992 -3.05003,1.30942 -3.8986,2.75227 -7.76367,2.63672 -1.93744,-0.0579 -3.50064,-1.29015 -4.67187,-2.7461 -0.6492,1.92172 -2.45769,7.35386 -4.36719,12.78321 7.79406,28.79668 -2.95065,19.74108 -6.99805,12.51953 -8.28156,1.03906 -29.62708,-9.92761 0.27344,-20.54297 8.62555,-28.39422 14.71009,-49.71521 23.29883,-74.29102 -2.38754,4.08152 -4.75187,8.04909 -7.04297,11.71875 -12.42733,19.90489 -23.18924,33.10254 -38.08594,51.06641 -4.40979,5.31774 -9.05433,10.43506 -13.56445,15.66797 -2.66358,3.09043 -5.30298,6.20245 -7.95508,9.30273 -3.86174,3.20027 -4.39706,4.93893 -8.96289,5.30274 -0.59587,0.0475 -1.26756,-0.0921 -1.72852,-0.47266 -0.53095,-0.43837 -0.88161,-1.04529 -1.24023,-1.64453 0.0362,0.0751 0.0753,0.14869 0.10937,0.22461 -0.15591,-0.26712 -0.31284,-0.53368 -0.46875,-0.80078 0.127,0.18525 0.24275,0.38129 0.35938,0.57617 -0.19851,-0.41169 -0.41631,-0.81476 -0.55274,-1.25 -0.16221,-0.5175 0.24439,-3.70628 0.24805,-3.75391 0.63892,-8.31265 -0.24476,-0.54788 1.88867,-14.59179 3.57115,-22.44946 3.58524,-23.13033 7.98633,-47.80469 0.22196,-1.2444 2.08671,-11.6238 4.02344,-21.71875 -3.42314,6.55442 -6.9468,13.01055 -10.79688,19.87109 -1.8568,3.30868 -3.9587,6.47652 -5.80859,9.78906 -4.08853,7.32121 -7.67159,14.91837 -11.92578,22.15039 -0.71411,0.81509 -1.33616,1.72144 -2.14258,2.44532 -1.65465,1.4853 -4.75175,2.30945 -6.80469,1.10547 -0.56496,-0.33132 -0.89225,-0.95949 -1.33789,-1.43946 0.0257,0.0174 0.0941,0.0795 0.0781,0.0527 -1.58198,-2.64805 0.4834,1.03008 -1.16211,-1.94922 -0.93107,-1.5953 -2.0874,-3.08337 -2.53906,-4.91211 -0.19575,-0.62788 -0.44303,-1.24129 -0.58789,-1.88281 -0.12097,-0.53562 -0.1844,-0.94149 -0.22852,-1.31641 -2.52724,3.13275 -3.1416,3.87917 -5.02734,6.20898 0.32153,0.25533 0.64094,0.53587 0.96484,0.70313 2.67462,1.38118 1.83448,0.59298 3.44726,3.82227 1.39317,6.86245 4.74481,13.14129 9.03126,18.63476 1.67864,2.15137 3.1135,3.51644 4.95507,5.36914 1.11565,1.66095 2.23201,3.32147 3.34766,4.98242 0.78186,1.40577 1.4774,2.86272 2.3457,4.2168 1.71627,2.67643 3.55895,5.27138 5.40039,7.86328 1.4936,2.10229 2.86718,4.3083 4.60157,6.2168 0.35469,0.3903 1.88034,1.89252 3.51757,3.49805 5.10482,-1.20108 10.23799,-2.44325 12.5625,-3.11719 1.6047,-0.46525 7.68697,-2.77257 9.70508,-3.5293 4.6817,-1.75548 6.40816,2.99034 1.72656,4.7461 -2.06817,0.77561 -8.11299,3.06992 -9.74023,3.54296 -2.07994,0.60465 -5.91966,1.55277 -9.97461,2.52735 6.60216,6.41048 14.85053,14.35056 14.85156,14.35156 7.41954,8.29373 16.43589,14.86233 24.4961,22.4668 3.4062,3.21361 4.62203,4.52868 7.66797,7.67383 1.0193,0.91759 9.96885,9.02185 11.41601,10.15624 1.96378,1.53942 4.07254,2.88461 6.12695,4.30079 0.45731,0.31524 0.91435,0.63263 1.3711,0.94921 1.22706,0.1686 2.50584,1.07413 3.32422,1.58985 -0.15741,0.44191 -0.27331,0.90715 -0.38282,1.37695 0.30188,0.31161 0.49491,0.86617 0.80079,1.1875 0.59205,0.622 1.21364,1.21651 1.82031,1.82422 2.77862,1.89702 4.85204,4.79823 7.49805,6.81445 1.17643,0.89647 2.47172,1.6283 3.72851,2.40821 4.45278,2.7631 3.50543,2.19161 7.47852,4.17382 1.173,0.59743 2.32938,1.23043 3.51953,1.79297 4.92456,2.32755 1.58934,0.44133 6.06054,2.82032 1.93076,1.02727 1.50466,0.92614 3.45704,2.26171 0.85607,0.58564 1.73032,1.145 2.5957,1.7168 3.89442,1.93542 7.95931,3.50061 12.10742,4.79688 0.88864,0.27779 3.04381,0.76509 4.01367,1.23047 0.56051,0.2691 1.05865,0.65234 1.58789,0.97851 0.33071,0.21884 0.63661,0.48016 0.99219,0.65625 0.12208,0.0605 0.27414,0.0126 0.4082,0.0391 0.28007,0.0522 0.56867,0.0872 0.83203,0.19532 0.85054,0.34909 1.36738,0.70477 1.91602,1.23632 0.004,-0.002 0.004,-0.004 0.01,-0.006 0.23773,-0.0658 0.43675,0.23043 0.64062,0.36914 1.82778,1.24399 3.4641,2.7445 5.16602,4.15234 2.12976,1.8342 4.50871,3.4073 6.25976,5.64062 0.29329,0.37418 0.48274,0.82264 0.77539,1.19727 0.0896,0.1149 0.23679,0.16924 0.35547,0.25391 0.28914,0.43857 0.57821,0.87587 0.86719,1.31445 0.13871,0.26872 0.25051,0.55356 0.41602,0.80664 0.0907,0.13909 0.80555,0.8063 0.86523,0.86133 1.04171,0.96064 2.20827,1.76365 3.32422,2.63672 1.79902,1.14871 3.88718,1.69527 5.88867,2.37109 3.50449,1.18337 1.87144,0.69633 4.30859,1.38477 2.03405,2.22233 2.18629,1.87544 1.24805,2.41992 0.1588,0.076 0.33051,0.1969 0.47656,0.24414 0.55654,0.17953 1.10699,0.3805 1.66016,0.57031 2.37982,0.60378 4.83351,0.99028 7.16797,1.76758 1.37174,0.45675 2.7616,1.05376 4.11523,1.61328 0.0365,-0.001 0.0453,-0.002 0.13282,0.0117 1.74229,0.0952 0.80291,0.10906 2.72265,0.68359 0.38249,0.11452 0.78081,0.16169 1.17188,0.24219 0.48423,0.15005 0.96889,0.30113 1.45312,0.45117 0.47128,0.28631 0.99092,0.4686 1.49609,0.68164 0.32674,0.035 0.64724,0.12062 0.95899,0.22461 1.2305,0.41016 1.35723,0.58368 2.47461,1.2793 0.32239,0.16743 0.64452,0.33456 0.9668,0.50195 0.36737,0.21808 0.72688,0.45082 1.10351,0.65235 0.32504,0.17385 1.51188,0.35721 -0.6875,-0.0781 -4.90484,-0.97088 5.39808,5.67298 0.43945,5.03125 -0.45838,-0.0593 -0.92792,-0.0602 -1.375,-0.17773 -1.18764,-0.31181 -2.0743,-1.31795 -3.2246,-1.71094 -0.34432,-0.25852 -0.73999,-0.59381 -1.17188,-0.69922 -0.89926,-0.21959 -1.71698,-0.3623 -2.50195,-0.88867 -1.69225,-0.54713 -0.7053,-0.25666 -2.97071,-0.81641 -0.24189,-0.0726 -0.54527,-0.10179 -0.69336,-0.30664 -0.0813,-0.11225 0.54252,-0.0861 0.4043,-0.0918 -2.30797,-0.0967 -0.62229,0.26536 -2.27148,-0.17382 -2.94853,-1.21675 2.66378,1.08943 -2.15039,-0.83594 -0.5757,-0.23017 -1.1269,-0.5218 -1.71485,-0.71875 -2.47566,-0.82938 -5.09021,-1.18712 -7.5957,-1.90625 -1.01208,-0.39167 -4.39179,-1.47142 -4.89258,-2.64648 -0.15142,-0.35532 -0.26214,-0.73533 -0.34375,-1.125 -0.37036,-0.12478 -0.77682,-0.27288 -2.32422,-0.79883 -2.54335,-0.86457 -5.169,-1.60533 -7.38672,-3.17969 -2.14038,-1.67804 -4.60778,-3.22051 -5.85351,-5.73828 -0.17651,-0.84159 0.0577,0.0494 -1.16016,-1.46094 -1.18246,-1.46634 1.28995,0.76087 -1.1582,-1.58398 -0.83645,-0.80115 -4.05163,-3.40302 -4.79688,-4.01368 -1.97333,-1.63407 -3.86202,-3.34961 -6.03125,-4.71875 0.10734,0.0151 0.42759,0.0146 0.32422,-0.0156 -1.344,-0.42353 -2.78455,-0.62607 -3.87695,-1.61914 -0.14211,-0.13039 -0.25272,-0.30735 -0.42578,-0.39258 -0.82863,-0.40868 -3.47328,-1.05798 -3.94141,-1.20508 -4.56458,-1.43455 -9.03994,-3.16104 -13.28906,-5.37304 -0.92419,-0.61255 -1.85979,-1.20977 -2.77344,-1.83789 -1.67597,-1.15227 -1.08303,-0.94071 -2.76953,-1.84376 -3.88797,-2.0818 -1.38164,-0.6101 -6.07617,-2.82812 -1.18079,-0.5579 -2.32655,-1.18659 -3.49024,-1.7793 -3.98022,-2.00568 -3.73394,-1.77708 -7.98828,-4.46875 -1.4859,-0.94008 -2.99236,-1.85516 -4.38867,-2.92383 -2.73503,-2.09318 -4.79038,-5.00295 -7.64844,-6.96093 -0.53175,-0.53821 -3.54846,-3.46994 -3.87304,-4.26953 -0.0762,-0.18785 -0.16001,-0.39062 -0.24219,-0.58985 -0.71971,-0.49146 -1.42677,-1.00181 -2.14258,-1.49804 -2.19746,-1.52342 -4.44504,-2.98243 -6.54883,-4.63282 -1.60415,-1.25842 -10.62955,-9.45966 -11.71484,-10.43945 -2.93993,-3.03818 -4.14866,-4.34509 -7.43164,-7.44531 -4.21582,-3.98112 -3.95605,-3.5153 -8.25977,-7.27344 -9.8686,-8.61754 -6.51735,-5.61712 -16.35156,-15.30078 -1.0853,-1.04749 -10.56681,-10.15266 -17.15625,-16.60547 -4.83388,1.12685 -9.31364,2.13945 -10.94726,2.48438 -19.79956,4.1804 -40.1592,7.96734 -60.03711,11.76171 -21.73079,4.01901 -43.5935,7.42401 -65.60743,9.43946 -1.84082,0.16853 -3.69116,0.48473 -5.53515,0.35547 -0.78139,-0.0548 -2.18771,-0.11336 -2.17188,-0.89649 0.0236,-1.16826 0.66328,-2.19157 1.31641,-3.21289 -0.24859,0.0547 -0.55353,-0.002 -0.6543,-0.19726 -0.90822,-1.76469 -1.62712,-3.64981 -2.05469,-5.5879 -0.73433,-3.32863 -0.92467,-5.55965 -0.83984,-7.70507 -0.97592,-0.66619 -1.26301,-2.92708 -0.94922,-4.16993 1.13957,-4.51355 3.1142,-8.77947 5.22461,-12.95312 1.55792,-3.84333 3.14474,-7.67328 5.13672,-11.30274 2.41551,-4.40111 5.29582,-8.93486 8.41797,-13.46289 0.002,-0.004 0.005,-0.008 0.008,-0.0117 1.40922,-2.34976 2.85042,-4.6784 4.33203,-6.98243 8.86945,-13.7927 15.06913,-22.58403 21.27539,-30.49023 2.33613,-4.02471 8.74675,-15.06518 17.33399,-29.89453 -0.39883,-0.41757 -0.80656,-0.82678 -1.19727,-1.25195 -0.46054,-0.50119 -0.90469,-1.01716 -1.35742,-1.5254 -9.28035,10.35679 -15.53505,17.7906 -30.46484,36.37305 -1.38882,1.87873 -2.7037,3.6454 -4.23633,5.71485 -1.51386,2.02193 -6.42522,8.91514 -8.96289,11.39648 -0.40879,0.39971 -0.84658,0.80023 -1.32422,1.125 -6.57275,8.40376 -13.05271,16.88018 -19.64649,25.26758 -4.1685,5.3024 -8.571714,10.42199 -12.61523,15.82031 -1.228354,1.63992 -1.349672,4.33441 -3.175781,5.26367 -0.0082,0.004 -0.01716,0.004 -0.02539,0.008 -0.304032,0.52537 -0.612537,1.04857 -0.916016,1.57422 -0.496214,-0.60833 -1.195861,-1.14196 -1.835937,-1.69726 -0.848655,-0.29441 -1.712371,-0.68147 -2.539063,-0.82813 0.324662,-0.56229 0.65518,-1.12163 0.980469,-1.68359 -0.01444,-1.82019 1.541996,-3.27071 2.751953,-4.72656 8.297259,-14.23843 16.768285,-28.38418 25.291015,-42.48438 10.29552,-17.03314 20.4844,-34.18933 31.75,-50.61328 0.2888,-0.29323 0.36196,-0.38587 0.41602,-0.54297 -0.0662,-1.93094 -0.0137,-3.67781 1.01562,-3.55469 2.24137,0.2681 3.43136,0.6046 4.01367,1.0918 0.88771,0.15946 0.80982,0.58883 0.45703,1.24609 -0.0393,0.50661 -0.21212,1.10065 -0.41797,1.83594 -0.42224,1.50836 -0.31422,1.0569 -1.24804,2.67188 -0.33726,0.49161 -0.66465,0.98951 -1,1.48242 -0.14378,0.35475 -0.28565,0.71064 -0.43164,1.06445 -3.77011,8.67633 -7.28988,17.57141 -12.20703,25.6875 -2.22775,3.67704 -5.15493,6.81483 -7.83399,10.14649 -0.40821,0.51572 -2.19178,2.74909 -2.6914,3.44531 -0.80266,1.1185 -1.08642,1.84849 -2.11719,2.74609 -0.10311,0.0898 -0.19649,-0.55061 -0.39649,-0.10547 -0.0378,0.42986 -0.079,0.86088 -0.11328,1.29102 -0.0171,0.21466 -0.007,0.43416 -0.006,0.65234 1.92374,-2.44975 3.85133,-4.89715 5.79883,-7.32812 2.78326,-3.47419 4.95995,-6.18085 7.25,-9.03125 3.90217,-5.27732 7.57821,-10.20436 12.25586,-15.94727 4.08395,-5.01399 8.37387,-9.85565 12.49414,-14.83984 1.93192,-2.33701 3.83872,-4.69367 5.75781,-7.04102 -0.30798,-0.35346 -0.61414,-0.70862 -0.92382,-1.06054 -2.9781,-4.6619 -5.77433,-9.42492 -8.39063,-14.30079 -3.68752,-6.87221 -2.65264,-5.34092 -6.35351,-12.0996 -0.9425,-1.72121 -1.93899,-3.4109 -2.90821,-5.11719 -0.84685,-1.30052 -1.65794,-2.62614 -2.54101,-3.90235 -0.11424,-0.16509 -4.68187,-6.29211 -4.73243,-6.36132 -0.93234,-1.27644 -4.97789,-6.80293 -5.52148,-8.1836 -0.67323,-1.70995 -0.72152,-3.60229 -1.08203,-5.40429 0.92296,-0.5176 1.74987,-1.36202 2.69336,-1.81055 -8.56938,-1.35227 -16.37879,-2.92538 -10.71875,-9.12695 -8.27197,-7.22909 -16.54444,-14.45842 -24.81641,-21.6875 -1.835861,-2.71786 -3.472748,-5.60117 -5.1582,-8.44336 -3.516219,-1.6674 -6.992277,-3.37029 -9.716797,-6.07227 -0.131411,-0.13032 -0.188986,-0.25483 -0.205078,-0.375 -0.329939,0.12516 -0.547585,-0.96513 -0.882813,-1.32812 C 83.210541,103.40559 75.126068,95.327011 74.324219,94.521484 69.890206,90.563888 63.7606,85.22228 59.826172,81.058594 58.152967,79.287896 56.725925,77.299867 55.240234,75.369141 52.773027,72.162888 50.35018,68.922282 47.970703,65.650391 33.18632,45.321189 49.885618,67.53049 35.361328,48.388672 c -1.341272,-1.404397 -2.659318,-2.832607 -4.02539,-4.212891 -2.624013,-2.651301 -3.281525,-2.845066 -5.40625,-5.726562 -0.807819,-1.095539 -1.59307,-2.218254 -2.232422,-3.419922 -1.55424,-2.921204 -2.324252,-5.675879 -3.365235,-8.798828 -0.645025,-1.935079 -0.224054,-3.33691 0.601563,-4.007813 0.0037,-0.0035 0.008,-0.0063 0.01172,-0.0098 0.04027,-0.03223 0.07898,-0.06504 0.121094,-0.09375 0.421875,-0.346395 0.999746,-0.586622 1.720703,-0.632813 425.779299,-1.010153 -2e-6,3.5e-5 -2e-6,3.5e-5 z m 62.990235,85.070312 c 0.02793,-0.0106 0.05427,-0.0135 0.08398,-0.043 0.16092,-0.15942 0.290117,-0.39534 0.404297,-0.66015 -0.31402,0.22649 -0.521491,0.45512 -0.488281,0.70312 z m 0.488281,-0.70312 c 0.799042,-0.57633 2.374672,-1.13351 3.197266,-1.90625 -0.503714,-0.57888 -1.022271,-1.14561 -1.56836,-1.68946 -0.95352,-0.9496 -0.950565,2.02247 -1.628906,3.59571 z m 50.126955,46.4082 c 0.0886,0.014 0.17495,0.029 0.26367,0.043 -0.0412,-0.0343 -0.0819,-0.0692 -0.12305,-0.10352 -0.0469,0.02 -0.0943,0.0385 -0.14062,0.0606 z m 299.2168,291.58789 c -0.054,-0.003 -0.0674,-0.005 -0.12696,-0.008 0.11294,0.0467 0.22945,0.0946 0.3418,0.14062 0.0237,-0.0788 -0.0955,-0.11442 -0.21484,-0.13281 z m -0.12696,-0.008 c -0.002,-8.8e-4 -0.004,-0.003 -0.006,-0.004 -0.0226,6.8e-4 -0.10293,-0.004 -0.0723,-0.002 0.0389,0.002 0.0415,0.004 0.0781,0.006 z M 304.6543,94.476562 c -0.0379,-0.0028 -0.074,0.0092 -0.10547,0.04102 -0.66963,0.676361 -1.32477,1.361578 -1.96875,2.052734 0.8657,-0.300448 1.7926,-0.538112 2.46875,-1.103515 0.24009,-0.200773 -0.12952,-0.970975 -0.39453,-0.990235 z m -5.40039,5.851558 c -7.78828,9.21622 -13.89365,19.46055 -20.82813,29.61915 -6.28346,10.68274 -10.21966,17.33105 -13.24609,22.42968 1.62164,-1.03609 3.25018,-2.05984 4.89062,-3.06445 2.75129,-1.6849 8.75646,-5.07928 14.18555,-7.55273 2.74655,-6.44576 4.70237,-12.16492 8.04102,-21.11524 1.61917,-4.77205 3.1266,-9.58441 4.85937,-14.31641 0.72333,-1.97531 1.25994,-4.07122 2.09766,-6 z m -7.39844,42.7461 c -0.51396,0.0793 -1.36033,0.9091 -3.63672,2.2207 -1.43063,3.2652 -3.06831,6.75598 -5.22656,11 -2.14807,4.22399 -4.46828,8.35713 -6.82031,12.47266 0.1706,0.40157 0.34173,0.81168 0.51953,1.33984 0.30504,0.90618 -0.97367,1.64821 -1.52735,2.42774 -1.56924,2.20938 -3.14256,4.42097 -4.83789,6.53515 -0.14473,0.18049 -0.29389,0.3573 -0.43945,0.53711 -2.73323,4.54422 -5.56223,9.03316 -8.16602,13.65235 -4.88323,8.66298 -9.21282,16.96746 -13.5332,25.41406 10.85112,-13.98937 16.92227,-22.19878 36.7832,-50.02735 3.37406,-4.72763 6.93704,-9.35638 9.75782,-14.43359 1.13592,-2.0446 0.78212,-4.93472 0.89648,-7.42773 -0.11897,-0.008 -0.2385,-0.008 -0.35547,-0.0391 -1.08852,-0.28909 -2.07737,-0.91753 -2.97656,-1.5957 -0.29976,-0.22609 -0.76157,-0.75816 -0.48828,-1.01562 0.32394,-0.3052 0.87641,0.15756 1.31445,0.23632 -0.63199,-0.96463 -0.85832,-1.35944 -1.26367,-1.29687 z m -10.88477,5.92187 c -2.74871,1.41996 -5.46141,2.90952 -8.09961,4.52149 -4.64315,2.83703 -9.21547,5.79925 -13.67578,8.91797 -1.82857,3.06536 0.9662,-1.49891 -1.21484,3.27539 0.41396,0.3424 0.70845,0.75609 0.74805,1.27344 0.11264,1.47183 -1.2259,2.42688 -2.84571,3.0625 -2.19115,4.38186 -5.88501,11.51993 -12.11133,23.23242 -0.11744,0.22092 -0.35689,0.64769 -0.49414,0.90234 2.4032,-2.4948 4.86708,-4.93391 7.34961,-7.34766 3,-2.91686 6.32275,-5.48263 9.41211,-8.30468 7.8588,-7.1788 3.14478,-3.02947 8.65235,-8.80469 0.71445,-0.74917 1.49223,-1.43658 2.23828,-2.1543 0.0603,-0.0302 0.10312,-0.0536 0.16211,-0.084 2.51843,-4.38291 5.01076,-8.78243 7.30468,-13.28516 0.95367,-1.87193 1.79301,-3.5778 2.57422,-5.20508 z m -61.98047,18.42383 c -3.75479,-0.0551 -15.33966,12.65652 -24.25976,22.98438 -5.32955,8.94955 -10.38542,17.51595 -14.05469,23.67187 -0.91621,1.58402 -1.11077,1.91674 -1.71484,2.95899 0.43185,0.43988 0.86391,0.87966 1.29297,1.32226 1.76622,-2.04045 3.26586,-3.75334 5.29492,-6.12109 8.68463,-8.61238 16.92489,-17.69479 26.05273,-25.83594 0.15491,-0.13816 0.31767,-0.26671 0.47461,-0.40234 -0.1965,-0.1915 -0.38063,-0.3852 -0.54101,-0.58203 -0.53368,-0.22498 -1.0652,-0.45235 -1.54688,-0.73438 1.47625,-1.31556 5.44832,-11.648 5.69531,-12.02734 1.12133,-1.72218 4.96711,-2.30305 4.43164,-4.28711 -0.17264,-0.6397 -0.56005,-0.93897 -1.125,-0.94727 z m 26.70704,5.51172 c -11.1985,9.21955 -26.3529,22.04572 -28.5,23.85938 -0.0658,2.4609 -0.25883,3.35363 -0.72657,6.75586 -0.39911,2.02661 -0.27841,2.11588 -0.93359,3.18554 0.003,0.0285 0.007,0.0341 0.01,0.0645 0.0521,0.64217 0.0796,1.28464 0.11914,1.92773 -0.96803,6.35435 -2.34584,12.63767 -3.68946,18.91992 -0.50955,2.38248 -0.9112,4.79151 -1.54297,7.14453 -0.40613,1.51265 -2.05892,6.69679 -3.46679,11.0918 0.1951,0.17664 0.38899,0.35449 0.58398,0.53125 0.70402,-1.19912 1.41004,-2.39711 2.11133,-3.59766 0.0874,-0.1642 0.34327,-0.63667 0.41797,-0.77734 2.00079,-3.76768 3.7874,-7.6542 5.93554,-11.33984 1.04431,-1.79173 2.14214,-3.54999 3.25391,-5.30079 9.82362,-18.66402 8.21069,-17.64522 18.90625,-39.25195 1.89573,-3.82968 4.03879,-7.53115 6.0586,-11.29687 0.63737,-0.81279 1.00852,-1.31399 1.46289,-1.91602 z m -17.38672,7.90039 c -0.0779,0.0532 -0.15864,0.10501 -0.23633,0.1582 -3.67488,2.51618 -7.55217,4.78696 -11.07813,7.49805 0.009,0.0472 0.0197,0.0978 0.0293,0.14453 0.10413,0.50789 0.16079,1.02219 0.19531,1.53907 2.54301,-2.14999 5.67679,-4.79609 11.08985,-9.33985 z m -33.44532,6.87305 c -1.21693,1.3487 -1.65523,1.82134 -2.77734,3.0625 0.36309,-0.17141 0.78907,-0.51515 1.27344,-1.00977 l 0.002,-0.002 c 0.64628,-0.87822 0.77814,-1.06822 1.50195,-2.05078 z m 60.12891,1.9668 c -0.34125,0.31711 -0.69124,0.62438 -1.02539,0.94921 -4.33148,4.21071 -8.61848,8.48519 -12.56055,13.0625 -4.33421,5.03266 -8.18571,10.46146 -12.25781,15.70899 -6.91209,12.21986 -14.1225,24.95636 -17.17969,30.63867 -0.0539,0.10027 -0.10439,0.20239 -0.1582,0.30273 0.23416,0.21892 0.46408,0.44218 0.69727,0.66211 3.65926,-6.3838 7.34494,-12.60074 11.02929,-18.31054 6.05539,-9.38431 12.79143,-18.3113 19.1875,-27.4668 z m -42.85352,3.02929 c -6.8846,6.38031 -13.31865,13.23823 -19.90234,19.9375 6.69374,-6.22052 13.48282,-12.30944 19.9375,-18.1914 0.001,-0.0767 0.003,-0.10213 0.004,-0.18165 0.007,-0.52142 -0.0143,-1.04264 -0.0391,-1.56445 z m 60.4629,1.84961 c -4.26132,5.83461 -8.55294,11.64585 -12.89258,17.42188 -5.48871,7.30541 -11.0996,14.51706 -16.73438,21.71093 2.78318,1.64 -0.0409,3.34974 -3.92968,5.02344 -1.01992,1.30019 -2.0354,2.60363 -3.05469,3.9043 -0.37062,0.69602 -0.7424,1.39175 -1.13086,2.07812 -0.84156,1.48694 -1.61291,2.86779 -2.69531,3.44532 0.0188,0.85486 0.10808,1.70784 0.14257,2.5625 0.0589,1.45813 -0.0491,2.06742 0.29102,3.39843 0.0943,0.36904 0.26209,0.71639 0.39258,1.07422 0.19321,0.51817 0.33684,1.05803 0.58008,1.55469 0.16977,0.34666 0.4428,0.63161 0.65039,0.95703 0.57122,0.89547 1.1417,1.81781 1.65429,2.76172 0.0992,0.004 0.21889,0.0334 0.30274,0.002 0.10356,-0.0389 0.17354,-0.14024 0.26172,-0.20703 0.2567,-0.19449 0.55992,-0.33699 0.77343,-0.57812 0.37406,-0.42247 0.64428,-0.92566 0.9668,-1.38868 3.97336,-7.01548 7.45789,-14.29614 11.38867,-21.33398 1.88908,-3.3823 4.02797,-6.6215 5.92383,-10 6.23846,-11.11725 11.65491,-21.17343 17.10938,-32.38672 z m -33.55664,44.15625 c 1.31216,-1.67278 2.61871,-3.34973 3.92968,-5.02344 -0.48693,-0.28692 -1.14856,-0.57157 -2.00195,-0.85351 -0.18565,0.36461 -0.36215,0.7119 -0.54883,1.07812 -0.91652,1.77612 -1.80006,3.57194 -2.69922,5.35742 0.45391,-0.18537 0.887,-0.3721 1.32032,-0.55859 z m -27.41797,-36.94141 c -8.18742,7.42204 -16.89691,15.27552 -25.03907,23.19727 1.82348,1.92244 3.57749,3.80152 7.14258,7.64258 3.97002,4.27732 2.6537,2.56557 4.67383,5.36914 1.46359,1.41353 2.95429,2.79747 4.45508,4.17187 1.21152,-3.79846 2.40857,-7.58202 2.63476,-8.42382 0.63057,-2.34671 1.03071,-4.74882 1.53907,-7.125 1.25134,-5.84908 2.42914,-11.70898 3.58984,-17.57618 -0.0295,-0.53348 -0.0477,-1.06892 -0.0898,-1.60156 -0.0287,-0.36537 -0.19345,-0.73176 -0.125,-1.0918 1.29909,-6.83228 0.23927,3.10567 1.05859,-3.48437 0.068,-0.47079 0.10564,-0.71287 0.16016,-1.07813 z m -29.56836,0.0664 c -3.37598,3.71609 -5.94172,6.55117 -8.54102,9.42969 0.57948,0.64784 1.15316,1.3002 1.74414,1.9375 0.0169,0.0182 0.0339,0.0365 0.0508,0.0547 0.57346,-0.99119 0.38362,-0.65821 0.99024,-1.70703 1.60845,-2.69855 3.72527,-6.28211 5.75586,-9.71485 z m 68.09765,2.11328 -3.29101,4.16602 c -6.32656,9.04749 -12.99388,17.86663 -18.98047,27.14258 -3.85495,5.97306 -7.75506,12.59559 -11.64063,19.40039 0.67431,0.71137 1.34618,1.42598 2.02149,2.13672 2.38008,-2.94029 2.92815,-3.59867 6.49804,-8.02735 1.05198,-1.3554 1.47421,-1.89023 2.45508,-3.15234 -0.10964,-0.68784 0.0156,-1.36893 0.5293,-1.4336 0.18809,-0.0237 0.31681,-0.0215 0.49023,-0.0391 0.10823,-0.34256 0.4391,-0.6951 0.94727,-1.05469 3.26112,-4.19206 6.07485,-7.8042 8.63477,-11.08593 -0.58735,-0.128 -1.21226,-0.25633 -1.89649,-0.38282 4.92097,-9.65235 9.41182,-18.57321 14.23242,-27.66992 z m -73.82812,17.62305 c -0.61693,1.06209 -1.43771,2.48077 -2.32617,4.01367 0.87172,-1.0014 2.02036,-2.34188 2.93359,-3.39258 -0.20092,-0.20848 -0.40536,-0.41367 -0.60742,-0.62109 z m 6.66015,6.9375 c -2.79486,2.79139 -5.50721,5.58383 -8.06835,8.36328 -6.82289,7.40443 -13.09513,15.30017 -19.45313,23.10742 -1.13565,1.39451 -2.36122,2.9287 -3.54297,4.38867 -2.79589,5.16632 -7.54611,13.86231 -16.5039,30.05469 -2.21989,4.01273 -4.67351,7.89442 -6.85938,11.92578 -6.54722,12.07493 1.23423,-1.35877 -3.68164,8.625 -1.15242,2.34049 -2.52463,4.56661 -3.78711,6.84961 -1.41651,0.90818 -2.70396,2.18167 -4.05664,3.27149 -0.25989,2.13549 -0.17054,3.79836 0.50781,8.11718 0.20035,1.27572 0.4497,2.56975 0.98242,3.7461 0.40903,0.9032 1.39066,1.56019 1.89063,2.39258 0.30219,-0.0173 0.60496,-0.033 0.90625,-0.0606 4.49148,-0.41051 8.98272,-0.82863 13.45898,-1.38086 23.67725,-2.92102 26.40024,-3.70843 51.7168,-7.99609 19.76067,-3.77184 40.17079,-7.56853 59.85352,-11.72266 0.87845,-0.1854 4.68373,-1.06244 7.80664,-1.77734 -0.80962,-0.81397 -1.43385,-1.45526 -1.77149,-1.82813 -1.77204,-1.95693 -3.18557,-4.21242 -4.71094,-6.36719 -1.92897,-2.72492 -3.84784,-5.45937 -5.65039,-8.26953 -0.79829,-1.24454 -1.43008,-2.58832 -2.14453,-3.88281 l -2.71875,-4.21094 c -2.1097,-2.1363 -3.56045,-3.51193 -5.50976,-6.0332 -4.65719,-6.02366 -8.2492,-12.89762 -9.77149,-20.38281 -0.7377,-0.39576 -2.35682,-1.26612 -2.35742,-1.30664 -0.005,-0.32769 0.0192,-0.64251 0.0606,-0.94532 -15.88281,19.58872 -7.2129,8.61696 -29.21485,37.97266 -1.98675,2.65079 -4.00079,5.27909 -6.01367,7.91016 -2.96533,5.08087 4.07836,-5.35798 -2.41015,4.04101 -0.1822,0.23533 -1.49011,2.49535 -3.15821,4.18164 -0.48839,1.21554 -1.02534,2.30512 -2.09961,2.14453 -0.46561,-0.0696 -0.85875,-0.17235 -1.19726,-0.30078 -1.04904,-0.003 -2.06627,-0.71226 -2.91211,-2.63281 -0.76367,-1.73396 2.16745,-3.11007 3.30273,-4.62695 1.44686,-1.93318 2.91567,-3.84972 4.38281,-5.76758 0.28431,-0.48201 0.50031,-0.85881 0.97266,-1.63086 3.29323,-5.38274 6.91579,-10.56295 10.11524,-16.00195 2.53979,-4.3176 5.12935,-8.8866 7.7539,-13.57618 -0.433,-0.1641 -0.85831,-0.34649 -1.2793,-0.53906 -1.21168,-0.1778 -2.42491,-0.34835 -3.58593,-0.72461 -0.20527,-0.0665 0.10392,-0.41835 0.16601,-0.625 0.12507,-0.41621 0.27405,-0.82657 0.39453,-1.24414 0.16698,-0.57873 0.31362,-1.16323 0.47266,-1.74414 -0.11044,-0.15135 -0.21719,-0.30583 -0.31836,-0.46289 -0.45908,0.74638 -0.40151,0.57171 -0.0644,-0.0977 -0.13883,-0.22224 -0.27036,-0.44825 -0.38477,-0.68554 -0.22787,-0.47258 0.29802,-1.00688 0.48242,-1.49805 0.11393,-0.30346 0.0911,-0.89082 0.39454,-0.9043 0.46861,-1.4486 1.20237,-2.79437 2.05078,-4.0957 0.64231,-4.85617 1.26345,-6.31697 2.68164,-11.56055 0.10534,-0.32879 0.71695,-2.23934 1.05273,-3.28515 -2.34291,-2.14028 -4.66932,-4.29781 -6.90039,-6.55664 -1.55644,-2.32936 -0.40451,-0.69968 -4.23242,-4.82422 -3.56772,-3.8442 -5.27395,-5.67338 -7.04688,-7.54297 z m 11.90235,40.95312 c 0.0206,0.033 0.0434,0.065 0.0644,0.0977 0.14055,-0.2285 0.24308,-0.38845 0.52344,-0.86719 -0.0444,-0.0388 -0.0982,-0.074 -0.13672,-0.11523 -0.15039,0.29391 -0.30739,0.5992 -0.45117,0.88476 z m 14.48633,-14.49218 c -2.64062,5.13252 -5.17246,10.32265 -7.82422,15.44922 -0.72786,1.40713 -1.52194,2.77862 -2.28321,4.16796 -0.0168,-0.003 -0.034,-0.005 -0.0508,-0.008 -0.005,0.0396 -0.007,0.0835 -0.008,0.13086 3.52054,-6.29253 7.1125,-12.78767 10.73242,-19.19336 -0.18985,-0.18113 -0.37576,-0.36658 -0.5664,-0.54687 z m 4.26171,4.27343 c -1.98744,3.52598 -3.96895,7.06795 -5.93164,10.59375 1.27928,-1.57407 5.19186,-6.4186 7.35547,-9.08593 -0.11817,-0.12164 -0.16753,-0.16657 -0.30859,-0.31446 -0.3756,-0.39376 -0.74496,-0.79441 -1.11524,-1.19336 z m 22.46485,1.63672 c 0.14138,0.27303 0.28208,0.54754 0.41015,0.82422 0.58877,-0.45504 0.0248,-0.63437 -0.41015,-0.82422 z m -115.09766,3.77344 c -0.0622,0.006 -0.10598,0.0204 -0.0664,0.0312 0.1371,0.0382 0.2788,0.0581 0.41797,0.0879 -0.0576,-0.0343 -0.11184,-0.0754 -0.17188,-0.10547 -0.0367,-0.0183 -0.11749,-0.0195 -0.17969,-0.0137 z m -2.95508,3.57031 c -0.11126,0.18416 -0.22269,0.36861 -0.33398,0.55274 -1.94885,3.2244 -3.89307,6.45241 -5.83594,9.68164 2.39637,-3.09617 4.79713,-6.1888 7.20313,-9.27735 -0.44569,-0.26304 -0.78753,-0.58373 -1.03321,-0.95703 z m 303.3711,171.84766 c -0.54582,0.41194 -1.24747,1.07602 -2.0625,2.26562 -0.2298,0.33563 0.94091,0.1354 1.20703,-0.17187 0.49059,-0.567 0.53177,-1.42076 0.85547,-2.09375 z"
       inkscape:connector-curvature="0"
       sodipodi:nodetypes="ccccccccssccsccccsscscccccssccccsccccsccsscscccscssccsccccsscscccsssccsccsccccccscccccccscccsccccccccccccccccccccccscsccccccccccsccccsscccccsscccsccccccccccccccccccccccsccccccsscccccccccccsccscccccccccccccccccccccccccsccscccccccccccccccccccccccccccccccccccccccccccccccccccccccccccccccccccccccccccccccccccccccccccccccccccccccccccccccsscccccccsccccccccccccccccccccccccccccccccccccccsscccssccccccccccccccccccccccccccccccccccccccsccccccccccccscscccccccccccccccccssccccccccccccccccccccccccccccccccsccccccccccccccccccccccscccccccccccccccccccccccccccccccccccccccccccccccccccccccccscccccccccccccccccsccscccccccscsccccccccccsccccccccssccccccccccccccccccccccccccccccccccccccccccccccccccccccc" />
  </g>
  <g
     inkscape:label="Layer 1"
     inkscape:groupmode="layer"
     id="layer1"
     transform="translate(0,-170)">
    <text
       xml:space="preserve"
       style="font-style:normal;font-variant:normal;font-weight:normal;font-stretch:normal;font-size:10.58333302px;line-height:1.25;font-family:Bahnschrift;-inkscape-font-specification:Bahnschrift;letter-spacing:0px;word-spacing:0px;fill:#000000;fill-opacity:1;stroke:none;stroke-width:0.26458332;"
       x="24.45516"
       y="224.83722"
       id="text3715"><tspan
         sodipodi:role="line"
         id="tspan3713"
         x="24.45516"
         y="235.25519"
         style="stroke-width:0.26458332;-inkscape-font-specification:Bahnschrift;font-family:Bahnschrift;font-weight:normal;font-style:normal;font-stretch:normal;font-variant:normal;" /></text>
    <text
       xml:space="preserve"
       style="font-style:normal;font-variant:normal;font-weight:normal;font-stretch:normal;font-size:10.58333302px;line-height:1.25;font-family:Arial;-inkscape-font-specification:Arial;letter-spacing:0px;word-spacing:0px;fill:#000000;fill-opacity:1;stroke:none;stroke-width:0.26458332;"
       x="26.994225"
       y="221.22908"
       id="text3719"><tspan
         sodipodi:role="line"
         id="tspan3717"
         x="26.994225"
         y="231.64705"
         style="stroke-width:0.26458332;-inkscape-font-specification:Arial;font-family:Arial;font-weight:normal;font-style:normal;font-stretch:normal;font-variant:normal;" /></text>
    <text
       xml:space="preserve"
       style="font-style:normal;font-variant:normal;font-weight:normal;font-stretch:normal;font-size:50.79999924px;line-height:1.25;font-family:Bahnschrift;-inkscape-font-specification:Bahnschrift;letter-spacing:0px;word-spacing:0px;fill:#000000;fill-opacity:1;stroke:none;stroke-width:0.26458332"
       x="12.561666"
       y="248.62422"
       id="text3727"><tspan
         sodipodi:role="line"
         id="tspan3725"
         x="12.561666"
         y="248.62422"
         style="font-size:50.79999924px;stroke-width:0.26458332">JOVI</tspan></text>
  </g>
</svg>
